<?xml version="1.0"?>
<VTKFile type="UnstructuredGrid" version="0.1" byte_order="LittleEndian">
  <UnstructuredGrid>
    <Piece NumberOfPoints="13" NumberOfCells="24">
      <Points>
        <DataArray type="Float64" NumberOfComponents="3" format="ascii">
          -12.5 21.6506 0
          -25 0 0
          -12.5 -21.6506 0
          0 -50 -6.216
          12.5 -21.6506 0
          0 0 8.216
          12.5 21.6506 0
          25 0 0
          -43.3013 -25 -6.216
          0 50 -6.216
          -43.3013 25 -6.216
          43.3013 25 -6.216
          43.3013 -25 -6.216
        </DataArray>
      </Points>
      <Cells>
        <DataArray type="Int32" Name="connectivity" format="ascii">
          0
          1
          1
          2
          3
          2
          4
          3
          5
          4
          5
          0
          6
          0
          7
          6
          4
          7
          2
          4
          8
          1
          2
          8
          5
          2
          5
          1
          0
          9
          10
          0
          1
          10
          9
          6
          11
          7
          6
          11
          12
          4
          7
          12
          5
          7
          5
          6
        </DataArray>
        <DataArray type="Int32" Name="offsets" format="ascii">
          2
          4
          6
          8
          10
          12
          14
          16
          18
          20
          22
          24
          26
          28
          30
          32
          34
          36
          38
          40
          42
          44
          46
          48
        </DataArray>
        <DataArray type="UInt8" Name="types" format="ascii">
          3
          3
          3
          3
          3
          3
          3
          3
          3
          3
          3
          3
          3
          3
          3
          3
          3
          3
          3
          3
          3
          3
          3
          3
        </DataArray>
      </Cells>
      <PointData>
        <DataArray type="Float64" Name="Displacement" NumberOfComponents="3" format="ascii">
          -1.63068e-05 2.82441e-05 -0.00530527 
          -3.2614e-05 9.75782e-19 -0.00530526 
          -1.63068e-05 -2.82441e-05 -0.00530527 
          0 0 0 
          1.63068e-05 -2.82441e-05 -0.00530527 
          -2.1684e-19 0 -0.0089755 
          1.63068e-05 2.82441e-05 -0.00530527 
          3.2614e-05 -1.28769e-18 -0.00530526 
          0 0 0 
          0 0 0 
          0 0 0 
          0 0 0 
          0 0 0 
        </DataArray>
        <DataArray type="Float64" Name="NodeForce" NumberOfComponents="3" format="ascii">
          0 0 0 
          0 0 0 
          0 0 0 
          0 0 0 
          0 0 0 
          0 0 -100 
          0 0 0 
          0 0 0 
          0 0 0 
          0 0 0 
          0 0 0 
          0 0 0 
          0 0 0 
        </DataArray>
        <DataArray type="Float64" Name="BCForce" NumberOfComponents="3" format="ascii">
          0 0 0 
          0 0 0 
          0 0 0 
          4.9738e-14 76.0118 16.6667 
          0 0 0 
          0 0 0 
          0 0 0 
          0 0 0 
          65.8282 38.0059 16.6667 
          9.23706e-14 -76.0118 16.6667 
          65.8282 -38.0059 16.6667 
          -65.8282 -38.0059 16.6667 
          -65.8282 38.0059 16.6667 
        </DataArray>
      </PointData>
      <CellData>
        <DataArray type="Int32" Name="ElementID" format="ascii">
          1
          2
          3
          4
          5
          6
          7
          8
          9
          10
          11
          12
          13
          14
          15
          16
          17
          18
          19
          20
          21
          22
          23
          24
        </DataArray>
        <DataArray type="Int32" Name="ElementType" format="ascii">
          2
          2
          2
          2
          2
          2
          2
          2
          2
          2
          2
          2
          2
          2
          2
          2
          2
          2
          2
          2
          2
          2
          2
          2
        </DataArray>
        <DataArray type="Float64" Name="ElementStress" format="ascii">
          0.273955
          0.273955
          -7.06068
          -7.06068
          -8.89709
          -8.89709
          0.273954
          0.273955
          0.273955
          0.273954
          -7.06069
          -7.06069
          -8.89709
          -8.89709
          -7.06068
          -7.06069
          -7.06069
          -7.06068
          -7.06069
          -7.06069
          -7.06069
          -7.06069
          -8.89709
          -8.89709
        </DataArray>
      </CellData>
    </Piece>
  </UnstructuredGrid>
</VTKFile>
